# xmcd
#
# Track frame offsets:
#	150
#	15375
#	31350
#	45825
#	62775
#	76500
#	90300
#	105075
#	119400
#	133650
#
# Disc length: 2029 seconds
#
# Revision: 0
# Processed by: cddbd v1.5.1PL2 Copyright (c) Steve Scherf et al.
# Submitted via: audiograbber 1.83.01
#
DISCID=6307eb0a
DTITLE=амтфу салиоу - тоу еяота глгвамг
DYEAR=1996
DGENRE=каийа
TTITLE0=лисос
TTITLE1=ци аута та латиа
TTITLE2=оуте йапмифы оуте пимы
TTITLE3=лг жеуцеис апоье
TTITLE4=тоу еяыта г лгвамг
TTITLE5=то йакутеяо паиди
TTITLE6=жамтаяайи
TTITLE7=лг лоу тафгс
TTITLE8=лг лоу ликас
TTITLE9=ока
EXTD=
EXTT0=
EXTT1=
EXTT2=
EXTT3=
EXTT4=
EXTT5=
EXTT6=
EXTT7=
EXTT8=
EXTT9=
PLAYORDER=
